<svg width="17" height="10" viewBox="0 0 17 10" fill="none" xmlns="http://www.w3.org/2000/svg">
<path fill-rule="evenodd" clip-rule="evenodd" d="M8.68931 3.16368C8.69277 3.15941 8.69617 3.15518 8.69926 3.15128C8.70611 3.14265 8.71289 3.13396 8.7196 3.12521C8.72891 3.11306 8.7381 3.1008 8.74717 3.08841C8.72842 3.11402 8.70913 3.13911 8.68931 3.16368ZM14.4034 2.97869C14.3324 2.74858 14.2344 2.54261 14.1094 2.3608C13.9872 2.17614 13.8395 2.01847 13.6662 1.88778C13.4957 1.7571 13.2997 1.65909 13.0781 1.59375C12.8565 1.52557 12.6151 1.49148 12.3537 1.49148C11.8849 1.49148 11.4673 1.60938 11.1009 1.84517C10.7344 2.08097 10.446 2.42756 10.2358 2.88494C10.0284 3.33949 9.92472 3.89346 9.92472 4.54688C9.92472 5.20597 10.0284 5.7642 10.2358 6.22159C10.4432 6.67898 10.7315 7.02699 11.1009 7.26562C11.4702 7.50142 11.8991 7.61932 12.3878 7.61932C12.831 7.61932 13.2145 7.53409 13.5384 7.36364C13.8651 7.19318 14.1165 6.9517 14.2926 6.6392C14.461 6.3377 14.5489 5.98685 14.5563 5.58665H12.5455V4.35085H16.0866V5.39915C16.0866 6.14631 15.9276 6.79261 15.6094 7.33807C15.2912 7.88352 14.8537 8.30398 14.2969 8.59943C13.7401 8.89205 13.1009 9.03835 12.3793 9.03835C11.5753 9.03835 10.8693 8.85795 10.2614 8.49716C10.1378 8.42287 10.0197 8.34225 9.90706 8.25528C10.0458 7.90984 10.115 7.5433 10.115 7.16317C10.1149 6.63139 9.98269 6.12503 9.70969 5.66708L9.60716 5.50692C9.35824 5.14187 9.03837 4.84094 8.65501 4.61239C8.62734 4.5958 8.59902 4.58055 8.57081 4.56536L8.54759 4.55282L8.58076 4.53529C8.60609 4.52201 8.63203 4.50841 8.65598 4.49423C9.0917 4.23444 9.44807 3.87809 9.70969 3.44345C9.98264 2.9855 10.115 2.47912 10.115 1.94735C10.115 1.57092 10.0483 1.20758 9.91237 0.865109C10.1664 0.666811 10.4447 0.50486 10.7472 0.379261C11.233 0.174716 11.7614 0.0724432 12.3324 0.0724432C12.8153 0.0724432 13.2656 0.143466 13.6832 0.285511C14.1009 0.424716 14.4716 0.62358 14.7955 0.882103C15.1222 1.14063 15.3906 1.44744 15.6009 1.80256C15.8111 2.15767 15.9489 2.54972 16.0142 2.97869H14.4034Z" fill="white"/>
<path fill-rule="evenodd" clip-rule="evenodd" d="M8.74717 3.08841C8.72842 3.11402 8.70913 3.13911 8.68931 3.16368C8.69277 3.15941 8.69617 3.15518 8.69926 3.15128C8.70934 3.13857 8.71929 3.12572 8.72909 3.11274C8.73517 3.10468 8.74119 3.09657 8.74717 3.08841ZM8.91098 6.28778L8.85822 6.19144C8.87682 6.22318 8.8944 6.25529 8.91098 6.28778Z" fill="white"/>
<path fill-rule="evenodd" clip-rule="evenodd" d="M9.09184 6.85109C9.06147 6.6531 9.0002 6.4635 8.91098 6.28778C9.00114 6.46447 9.06142 6.65224 9.09184 6.85109Z" fill="white"/>
<path fill-rule="evenodd" clip-rule="evenodd" d="M8.91098 6.28778C9.00114 6.46447 9.06142 6.65224 9.09184 6.85109C9.06147 6.6531 9.0002 6.4635 8.91098 6.28778Z" fill="white"/>
<path fill-rule="evenodd" clip-rule="evenodd" d="M9.10441 1.73642C9.07626 1.46005 8.99178 1.20371 8.85085 0.96733C8.67756 0.671875 8.44318 0.4375 8.14773 0.264205C7.85227 0.0880682 7.52557 0 7.16761 0C6.80682 0 6.47869 0.0880682 6.18324 0.264205C5.88778 0.4375 5.65199 0.671875 5.47585 0.96733C5.30256 1.26278 5.21591 1.58949 5.21591 1.94744V2.82955H3.90767V1.94744C3.90767 1.58949 3.81818 1.26278 3.6392 0.96733C3.46307 0.671875 3.22727 0.4375 2.93182 0.264205C2.63636 0.0880682 2.30966 0 1.9517 0C1.59375 0 1.26705 0.0880682 0.971591 0.264205C0.676136 0.4375 0.440341 0.671875 0.264205 0.96733C0.0880683 1.26278 0 1.58949 0 1.94744C0 2.30824 0.0880683 2.63636 0.264205 2.93182C0.440341 3.22443 0.676136 3.45881 0.971591 3.63494C1.26705 3.80824 1.59375 3.89489 1.9517 3.89489H2.83807V5.20739H1.9517C1.59375 5.20739 1.26705 5.29545 0.971591 5.47159C0.676136 5.64773 0.440341 5.88352 0.264205 6.17898C0.0880683 6.47443 0 6.80256 0 7.16335C0 7.51847 0.0880683 7.84517 0.264205 8.14347C0.440341 8.43892 0.676136 8.67472 0.971591 8.85085C1.26705 9.02415 1.59375 9.1108 1.9517 9.1108C2.30966 9.1108 2.63636 9.02415 2.93182 8.85085C3.22727 8.67472 3.46307 8.43892 3.6392 8.14347C3.81818 7.84517 3.90767 7.51847 3.90767 7.16335V6.27273H5.21591V7.16335C5.21591 7.51847 5.30256 7.84517 5.47585 8.14347C5.65199 8.43892 5.88778 8.67472 6.18324 8.85085C6.47869 9.02415 6.80682 9.1108 7.16761 9.1108C7.52557 9.1108 7.85085 9.02415 8.14347 8.85085C8.43892 8.67472 8.67472 8.43892 8.85085 8.14347C8.88524 8.08523 8.91627 8.0259 8.94394 7.96549C8.95432 7.94284 8.96423 7.92003 8.97366 7.89707C9.06216 7.68171 9.10912 7.45296 9.11452 7.2108C9.11488 7.19504 9.11506 7.17923 9.11506 7.16335C9.11506 7.07033 9.1092 6.97948 9.0975 6.8908C9.09575 6.87753 9.09386 6.86429 9.09184 6.85109C9.06147 6.6531 9.0002 6.4635 8.91098 6.28778L8.85822 6.19144L8.8513 6.1788C8.7358 5.98506 8.59462 5.81749 8.42775 5.67502C8.34008 5.60012 8.24532 5.53231 8.14347 5.47159C7.85085 5.29545 7.52557 5.20739 7.16761 5.20739H6.28551V3.89489H7.16761C7.52557 3.89489 7.85085 3.80824 8.14347 3.63494C8.24737 3.573 8.34387 3.50374 8.43309 3.42738C8.50672 3.36438 8.57533 3.2965 8.63892 3.2237L8.6585 3.20096L8.66664 3.19127L8.67598 3.18003C8.69996 3.15086 8.72472 3.11907 8.74717 3.08841L8.75735 3.07438C8.73854 3.10055 8.71917 3.12618 8.69926 3.15128C8.73019 3.11232 8.75979 3.07207 8.78804 3.03051C8.80993 2.99836 8.83101 2.96543 8.8513 2.93173C9.02733 2.63634 9.11497 2.30804 9.11497 1.94735C9.11497 1.87579 9.11142 1.80552 9.10441 1.73642ZM1.9517 8.04545C2.11364 8.04545 2.26136 8.00568 2.39489 7.92614C2.53125 7.84659 2.6392 7.74006 2.71875 7.60653C2.7983 7.47301 2.83807 7.32528 2.83807 7.16335V6.27273H1.9517C1.78977 6.27273 1.64205 6.31392 1.50852 6.39631C1.375 6.47585 1.26847 6.58239 1.18892 6.71591C1.10938 6.84943 1.0696 6.99858 1.0696 7.16335C1.0696 7.32528 1.10795 7.47301 1.18466 7.60653C1.2642 7.74006 1.37074 7.84659 1.50426 7.92614C1.64063 8.00568 1.78977 8.04545 1.9517 8.04545ZM1.9517 2.82955H2.83807V1.94744C2.83807 1.78267 2.7983 1.63494 2.71875 1.50426C2.6392 1.37074 2.53125 1.2642 2.39489 1.18466C2.26136 1.10511 2.11364 1.06534 1.9517 1.06534C1.78977 1.06534 1.64205 1.10511 1.50852 1.18466C1.375 1.2642 1.26847 1.37074 1.18892 1.50426C1.10938 1.63494 1.0696 1.78267 1.0696 1.94744C1.0696 2.10938 1.10795 2.25852 1.18466 2.39489C1.2642 2.52841 1.37074 2.63494 1.50426 2.71449C1.64063 2.79119 1.78977 2.82955 1.9517 2.82955ZM6.28551 2.82955H7.16761C7.32955 2.82955 7.47727 2.79119 7.6108 2.71449C7.74432 2.63494 7.84943 2.52841 7.92614 2.39489C8.00568 2.26136 8.04545 2.11222 8.04545 1.94744C8.04545 1.78267 8.00568 1.63494 7.92614 1.50426C7.84943 1.37074 7.74432 1.2642 7.6108 1.18466C7.47727 1.10511 7.32955 1.06534 7.16761 1.06534C7.00284 1.06534 6.85369 1.10511 6.72017 1.18466C6.58665 1.2642 6.48011 1.37074 6.40057 1.50426C6.32386 1.63494 6.28551 1.78267 6.28551 1.94744V2.82955ZM7.16761 8.04545C7.32955 8.04545 7.47727 8.00568 7.6108 7.92614C7.74432 7.84659 7.84943 7.74006 7.92614 7.60653C8.00568 7.47301 8.04545 7.32528 8.04545 7.16335C8.04545 6.99858 8.00568 6.84943 7.92614 6.71591C7.84943 6.58239 7.74432 6.47585 7.6108 6.39631C7.47727 6.31392 7.32955 6.27273 7.16761 6.27273H6.28551V7.16335C6.28551 7.32528 6.32386 7.47301 6.40057 7.60653C6.48011 7.74006 6.58665 7.84659 6.72017 7.92614C6.85369 8.00568 7.00284 8.04545 7.16761 8.04545ZM3.90767 5.20739H5.21591V3.89489H3.90767V5.20739Z" fill="white"/>
</svg>
